<mxfile host="app.diagrams.net" modified="2022-04-19T15:35:01.196Z" agent="5.0 (Macintosh; Intel Mac OS X 10_15_7) AppleWebKit/537.36 (KHTML, like Gecko) Chrome/100.0.4896.127 Safari/537.36" etag="nqmIU3mi8hS5hsAgeiH5" version="17.4.5" type="github" pages="5">
  <diagram id="MtcimsbLI3AoPs-vs3pn" name="Spark DataSource">
    <mxGraphModel dx="1214" dy="688" grid="1" gridSize="10" guides="1" tooltips="1" connect="1" arrows="1" fold="1" page="1" pageScale="1" pageWidth="3300" pageHeight="4681" math="0" shadow="0">
      <root>
        <mxCell id="0" />
        <mxCell id="1" parent="0" />
        <mxCell id="IiXLcPpYvkYv-F2IjEYs-1" value="Create Table为例子" style="shape=umlLifeline;perimeter=lifelinePerimeter;whiteSpace=wrap;html=1;container=1;collapsible=0;recursiveResize=0;outlineConnect=0;" parent="1" vertex="1">
          <mxGeometry x="640" y="20" width="100" height="300" as="geometry" />
        </mxCell>
        <mxCell id="IiXLcPpYvkYv-F2IjEYs-4" value="开始" style="html=1;verticalAlign=bottom;endArrow=block;rounded=0;" parent="IiXLcPpYvkYv-F2IjEYs-1" target="IiXLcPpYvkYv-F2IjEYs-2" edge="1">
          <mxGeometry width="80" relative="1" as="geometry">
            <mxPoint x="50" y="90" as="sourcePoint" />
            <mxPoint x="130" y="90" as="targetPoint" />
          </mxGeometry>
        </mxCell>
        <mxCell id="IiXLcPpYvkYv-F2IjEYs-2" value="ResolveCatalogs" style="shape=umlLifeline;perimeter=lifelinePerimeter;whiteSpace=wrap;html=1;container=1;collapsible=0;recursiveResize=0;outlineConnect=0;" parent="1" vertex="1">
          <mxGeometry x="760" y="20" width="100" height="300" as="geometry" />
        </mxCell>
        <mxCell id="IiXLcPpYvkYv-F2IjEYs-5" value="CreateV2Table" style="shape=umlLifeline;perimeter=lifelinePerimeter;whiteSpace=wrap;html=1;container=1;collapsible=0;recursiveResize=0;outlineConnect=0;" parent="1" vertex="1">
          <mxGeometry x="900" y="20" width="100" height="300" as="geometry" />
        </mxCell>
        <mxCell id="IiXLcPpYvkYv-F2IjEYs-6" value="apply：case CreateTableStatement" style="html=1;verticalAlign=bottom;endArrow=block;rounded=0;" parent="IiXLcPpYvkYv-F2IjEYs-5" edge="1">
          <mxGeometry width="80" relative="1" as="geometry">
            <mxPoint x="-69" y="110" as="sourcePoint" />
            <mxPoint x="50.5" y="110" as="targetPoint" />
          </mxGeometry>
        </mxCell>
        <mxCell id="IiXLcPpYvkYv-F2IjEYs-7" value="DataSourceV2Strategy" style="shape=umlLifeline;perimeter=lifelinePerimeter;whiteSpace=wrap;html=1;container=1;collapsible=0;recursiveResize=0;outlineConnect=0;" parent="1" vertex="1">
          <mxGeometry x="1050" y="20" width="130" height="300" as="geometry" />
        </mxCell>
        <mxCell id="IiXLcPpYvkYv-F2IjEYs-8" value="apply： case CreateV2Table" style="html=1;verticalAlign=bottom;endArrow=block;rounded=0;" parent="IiXLcPpYvkYv-F2IjEYs-7" edge="1">
          <mxGeometry width="80" relative="1" as="geometry">
            <mxPoint x="-69" y="139" as="sourcePoint" />
            <mxPoint x="50.5" y="139" as="targetPoint" />
          </mxGeometry>
        </mxCell>
        <mxCell id="IiXLcPpYvkYv-F2IjEYs-9" value="CreateTableExec" style="shape=umlLifeline;perimeter=lifelinePerimeter;whiteSpace=wrap;html=1;container=1;collapsible=0;recursiveResize=0;outlineConnect=0;" parent="1" vertex="1">
          <mxGeometry x="1190" y="20" width="100" height="370" as="geometry" />
        </mxCell>
        <mxCell id="IiXLcPpYvkYv-F2IjEYs-10" value="" style="html=1;verticalAlign=bottom;endArrow=block;rounded=0;" parent="IiXLcPpYvkYv-F2IjEYs-9" edge="1">
          <mxGeometry width="80" relative="1" as="geometry">
            <mxPoint x="-69" y="163" as="sourcePoint" />
            <mxPoint x="50.5" y="163" as="targetPoint" />
          </mxGeometry>
        </mxCell>
        <mxCell id="IiXLcPpYvkYv-F2IjEYs-11" value="" style="html=1;points=[];perimeter=orthogonalPerimeter;" parent="IiXLcPpYvkYv-F2IjEYs-9" vertex="1">
          <mxGeometry x="45" y="190" width="10" height="120" as="geometry" />
        </mxCell>
        <mxCell id="IiXLcPpYvkYv-F2IjEYs-12" value="run" style="edgeStyle=orthogonalEdgeStyle;html=1;align=left;spacingLeft=2;endArrow=block;rounded=0;entryX=1;entryY=0;" parent="IiXLcPpYvkYv-F2IjEYs-9" target="IiXLcPpYvkYv-F2IjEYs-11" edge="1">
          <mxGeometry relative="1" as="geometry">
            <mxPoint x="45" y="180" as="sourcePoint" />
            <Array as="points">
              <mxPoint x="75" y="180" />
            </Array>
          </mxGeometry>
        </mxCell>
        <mxCell id="IiXLcPpYvkYv-F2IjEYs-13" value="TableCatalog&lt;br&gt;(V2SessionCatalog/JDBCCatalog)" style="shape=umlLifeline;perimeter=lifelinePerimeter;whiteSpace=wrap;html=1;container=1;collapsible=0;recursiveResize=0;outlineConnect=0;" parent="1" vertex="1">
          <mxGeometry x="1340" y="20" width="100" height="300" as="geometry" />
        </mxCell>
        <mxCell id="IiXLcPpYvkYv-F2IjEYs-14" value="tableExists/createTable" style="html=1;verticalAlign=bottom;endArrow=block;rounded=0;" parent="IiXLcPpYvkYv-F2IjEYs-13" source="IiXLcPpYvkYv-F2IjEYs-9" edge="1">
          <mxGeometry width="80" relative="1" as="geometry">
            <mxPoint x="-69" y="224" as="sourcePoint" />
            <mxPoint x="50.5" y="224" as="targetPoint" />
          </mxGeometry>
        </mxCell>
        <mxCell id="IiXLcPpYvkYv-F2IjEYs-15" value="V2SessionCatalog" style="shape=umlLifeline;perimeter=lifelinePerimeter;whiteSpace=wrap;html=1;container=1;collapsible=0;recursiveResize=0;outlineConnect=0;" parent="1" vertex="1">
          <mxGeometry x="1460" y="20" width="100" height="300" as="geometry" />
        </mxCell>
        <mxCell id="IiXLcPpYvkYv-F2IjEYs-16" value="通过ExternalCatalog(Hive ExternalCatalog)，&lt;br&gt;调用HiveClient完成createTable逻辑" style="html=1;verticalAlign=bottom;endArrow=block;rounded=0;" parent="IiXLcPpYvkYv-F2IjEYs-15" edge="1">
          <mxGeometry width="80" relative="1" as="geometry">
            <mxPoint x="-220.5" y="266" as="sourcePoint" />
            <mxPoint x="50.5" y="266" as="targetPoint" />
          </mxGeometry>
        </mxCell>
        <mxCell id="IiXLcPpYvkYv-F2IjEYs-17" value="JDBCCatalog" style="shape=umlLifeline;perimeter=lifelinePerimeter;whiteSpace=wrap;html=1;container=1;collapsible=0;recursiveResize=0;outlineConnect=0;" parent="1" vertex="1">
          <mxGeometry x="1570" y="20" width="100" height="370" as="geometry" />
        </mxCell>
        <mxCell id="IiXLcPpYvkYv-F2IjEYs-18" value="通过JDBC执行SQL完成create table" style="html=1;verticalAlign=bottom;endArrow=block;rounded=0;" parent="IiXLcPpYvkYv-F2IjEYs-17" edge="1">
          <mxGeometry width="80" relative="1" as="geometry">
            <mxPoint x="-330.5" y="309" as="sourcePoint" />
            <mxPoint x="50.5" y="309" as="targetPoint" />
          </mxGeometry>
        </mxCell>
      </root>
    </mxGraphModel>
  </diagram>
  <diagram id="5P99UEPK_KNVvHkSd_8D" name="Catalog系谱图">
    <mxGraphModel dx="1214" dy="717" grid="1" gridSize="10" guides="1" tooltips="1" connect="1" arrows="1" fold="1" page="1" pageScale="1" pageWidth="3300" pageHeight="4681" math="0" shadow="0">
      <root>
        <mxCell id="0" />
        <mxCell id="1" parent="0" />
        <mxCell id="5B9JckV7mlWKg8Jw2MZ--5" value="«interface»&lt;br&gt;&lt;b&gt;CatalogPlugin&lt;/b&gt;" style="html=1;" vertex="1" parent="1">
          <mxGeometry x="470" width="110" height="50" as="geometry" />
        </mxCell>
        <mxCell id="5B9JckV7mlWKg8Jw2MZ--6" value="Extends" style="endArrow=block;endSize=16;endFill=0;html=1;rounded=0;exitX=0.25;exitY=0;exitDx=0;exitDy=0;" edge="1" parent="1">
          <mxGeometry width="160" relative="1" as="geometry">
            <mxPoint x="650" y="160" as="sourcePoint" />
            <mxPoint x="560" y="50" as="targetPoint" />
          </mxGeometry>
        </mxCell>
        <mxCell id="5B9JckV7mlWKg8Jw2MZ--7" value="Extends" style="endArrow=block;endSize=16;endFill=0;html=1;rounded=0;" edge="1" parent="1">
          <mxGeometry width="160" relative="1" as="geometry">
            <mxPoint x="370" y="160" as="sourcePoint" />
            <mxPoint x="480" y="50" as="targetPoint" />
          </mxGeometry>
        </mxCell>
        <mxCell id="5B9JckV7mlWKg8Jw2MZ--17" value="«interface»&lt;br&gt;&lt;b&gt;SupportsNamespaces&lt;/b&gt;" style="html=1;" vertex="1" parent="1">
          <mxGeometry x="610" y="160" width="130" height="50" as="geometry" />
        </mxCell>
        <mxCell id="5B9JckV7mlWKg8Jw2MZ--18" value="«interface»&lt;br&gt;&lt;span style=&quot;font-weight: 700&quot;&gt;TableCatalog&lt;/span&gt;" style="html=1;" vertex="1" parent="1">
          <mxGeometry x="300" y="160" width="130" height="50" as="geometry" />
        </mxCell>
        <mxCell id="5B9JckV7mlWKg8Jw2MZ--19" value="«interface»&lt;br&gt;&lt;span style=&quot;font-weight: 700&quot;&gt;CatalogExtension&lt;/span&gt;" style="html=1;" vertex="1" parent="1">
          <mxGeometry x="455" y="300" width="130" height="50" as="geometry" />
        </mxCell>
        <mxCell id="5B9JckV7mlWKg8Jw2MZ--20" value="Extends" style="endArrow=block;endSize=16;endFill=0;html=1;rounded=0;exitX=0.75;exitY=0;exitDx=0;exitDy=0;entryX=0.569;entryY=0.98;entryDx=0;entryDy=0;entryPerimeter=0;" edge="1" parent="1" source="5B9JckV7mlWKg8Jw2MZ--19" target="5B9JckV7mlWKg8Jw2MZ--17">
          <mxGeometry width="160" relative="1" as="geometry">
            <mxPoint x="660" y="229" as="sourcePoint" />
            <mxPoint x="570" y="119" as="targetPoint" />
          </mxGeometry>
        </mxCell>
        <mxCell id="5B9JckV7mlWKg8Jw2MZ--21" value="Extends" style="endArrow=block;endSize=16;endFill=0;html=1;rounded=0;entryX=0.75;entryY=1;entryDx=0;entryDy=0;" edge="1" parent="1" source="5B9JckV7mlWKg8Jw2MZ--19" target="5B9JckV7mlWKg8Jw2MZ--18">
          <mxGeometry width="160" relative="1" as="geometry">
            <mxPoint x="380" y="170" as="sourcePoint" />
            <mxPoint x="490" y="60" as="targetPoint" />
          </mxGeometry>
        </mxCell>
        <mxCell id="5B9JckV7mlWKg8Jw2MZ--22" value="«interface»&lt;br&gt;&lt;b&gt;StagingTableCatalog&lt;/b&gt;" style="html=1;" vertex="1" parent="1">
          <mxGeometry x="290" y="280" width="130" height="50" as="geometry" />
        </mxCell>
        <mxCell id="5B9JckV7mlWKg8Jw2MZ--23" value="Extends" style="endArrow=block;endSize=16;endFill=0;html=1;rounded=0;exitX=0.5;exitY=0;exitDx=0;exitDy=0;entryX=0.423;entryY=1.06;entryDx=0;entryDy=0;entryPerimeter=0;" edge="1" parent="1" source="5B9JckV7mlWKg8Jw2MZ--22" target="5B9JckV7mlWKg8Jw2MZ--18">
          <mxGeometry width="160" relative="1" as="geometry">
            <mxPoint x="380" y="170" as="sourcePoint" />
            <mxPoint x="490" y="60" as="targetPoint" />
          </mxGeometry>
        </mxCell>
        <mxCell id="5B9JckV7mlWKg8Jw2MZ--28" value="Extends" style="endArrow=block;endSize=16;endFill=0;html=1;rounded=0;entryX=0.808;entryY=1.04;entryDx=0;entryDy=0;entryPerimeter=0;exitX=0.844;exitY=0.029;exitDx=0;exitDy=0;exitPerimeter=0;" edge="1" parent="1" target="5B9JckV7mlWKg8Jw2MZ--17">
          <mxGeometry width="160" relative="1" as="geometry">
            <mxPoint x="585.04" y="370.9860000000001" as="sourcePoint" />
            <mxPoint x="490" y="60" as="targetPoint" />
          </mxGeometry>
        </mxCell>
        <mxCell id="5B9JckV7mlWKg8Jw2MZ--29" value="Extends" style="endArrow=block;endSize=16;endFill=0;html=1;rounded=0;entryX=0.638;entryY=1;entryDx=0;entryDy=0;entryPerimeter=0;exitX=0.063;exitY=-0.118;exitDx=0;exitDy=0;exitPerimeter=0;" edge="1" parent="1" target="5B9JckV7mlWKg8Jw2MZ--18">
          <mxGeometry width="160" relative="1" as="geometry">
            <mxPoint x="460.0799999999999" y="365.98800000000006" as="sourcePoint" />
            <mxPoint x="725.04" y="222" as="targetPoint" />
          </mxGeometry>
        </mxCell>
        <mxCell id="5B9JckV7mlWKg8Jw2MZ--30" value="JDBCTableCatalog" style="swimlane;fontStyle=1;align=center;verticalAlign=top;childLayout=stackLayout;horizontal=1;startSize=26;horizontalStack=0;resizeParent=1;resizeParentMax=0;resizeLast=0;collapsible=1;marginBottom=0;" vertex="1" parent="1">
          <mxGeometry x="440" y="370" width="160" height="178" as="geometry" />
        </mxCell>
        <mxCell id="5B9JckV7mlWKg8Jw2MZ--31" value="+ catalogName: String&#xa;+ xxxx" style="text;strokeColor=none;fillColor=none;align=left;verticalAlign=top;spacingLeft=4;spacingRight=4;overflow=hidden;rotatable=0;points=[[0,0.5],[1,0.5]];portConstraint=eastwest;" vertex="1" parent="5B9JckV7mlWKg8Jw2MZ--30">
          <mxGeometry y="26" width="160" height="34" as="geometry" />
        </mxCell>
        <mxCell id="5B9JckV7mlWKg8Jw2MZ--32" value="" style="line;strokeWidth=1;fillColor=none;align=left;verticalAlign=middle;spacingTop=-1;spacingLeft=3;spacingRight=3;rotatable=0;labelPosition=right;points=[];portConstraint=eastwest;" vertex="1" parent="5B9JckV7mlWKg8Jw2MZ--30">
          <mxGeometry y="60" width="160" height="8" as="geometry" />
        </mxCell>
        <mxCell id="5B9JckV7mlWKg8Jw2MZ--33" value="+ listTables&#xa;+ tableExists&#xa;+ dropTable&#xa;+ loadTable&#xa;+ createTable&#xa;+ listNamespaces&#xa;+xxxx" style="text;strokeColor=none;fillColor=none;align=left;verticalAlign=top;spacingLeft=4;spacingRight=4;overflow=hidden;rotatable=0;points=[[0,0.5],[1,0.5]];portConstraint=eastwest;" vertex="1" parent="5B9JckV7mlWKg8Jw2MZ--30">
          <mxGeometry y="68" width="160" height="110" as="geometry" />
        </mxCell>
        <mxCell id="5B9JckV7mlWKg8Jw2MZ--34" value="V2SessionCatalog" style="swimlane;fontStyle=1;align=center;verticalAlign=top;childLayout=stackLayout;horizontal=1;startSize=26;horizontalStack=0;resizeParent=1;resizeParentMax=0;resizeLast=0;collapsible=1;marginBottom=0;" vertex="1" parent="1">
          <mxGeometry x="640" y="370" width="160" height="178" as="geometry" />
        </mxCell>
        <mxCell id="5B9JckV7mlWKg8Jw2MZ--35" value="+ defaultNamespace: Array&#xa;+ xxxx" style="text;strokeColor=none;fillColor=none;align=left;verticalAlign=top;spacingLeft=4;spacingRight=4;overflow=hidden;rotatable=0;points=[[0,0.5],[1,0.5]];portConstraint=eastwest;" vertex="1" parent="5B9JckV7mlWKg8Jw2MZ--34">
          <mxGeometry y="26" width="160" height="34" as="geometry" />
        </mxCell>
        <mxCell id="5B9JckV7mlWKg8Jw2MZ--36" value="" style="line;strokeWidth=1;fillColor=none;align=left;verticalAlign=middle;spacingTop=-1;spacingLeft=3;spacingRight=3;rotatable=0;labelPosition=right;points=[];portConstraint=eastwest;" vertex="1" parent="5B9JckV7mlWKg8Jw2MZ--34">
          <mxGeometry y="60" width="160" height="8" as="geometry" />
        </mxCell>
        <mxCell id="5B9JckV7mlWKg8Jw2MZ--37" value="+ listTables&#xa;+ tableExists&#xa;+ dropTable&#xa;+ loadTable&#xa;+ createTable&#xa;+ listNamespaces&#xa;+xxxx" style="text;strokeColor=none;fillColor=none;align=left;verticalAlign=top;spacingLeft=4;spacingRight=4;overflow=hidden;rotatable=0;points=[[0,0.5],[1,0.5]];portConstraint=eastwest;" vertex="1" parent="5B9JckV7mlWKg8Jw2MZ--34">
          <mxGeometry y="68" width="160" height="110" as="geometry" />
        </mxCell>
        <mxCell id="5B9JckV7mlWKg8Jw2MZ--38" value="Extends" style="endArrow=block;endSize=16;endFill=0;html=1;rounded=0;entryX=1;entryY=1;entryDx=0;entryDy=0;exitX=0.563;exitY=-0.017;exitDx=0;exitDy=0;exitPerimeter=0;" edge="1" parent="1" source="5B9JckV7mlWKg8Jw2MZ--34" target="5B9JckV7mlWKg8Jw2MZ--18">
          <mxGeometry width="160" relative="1" as="geometry">
            <mxPoint x="700" y="360" as="sourcePoint" />
            <mxPoint x="407.5" y="220" as="targetPoint" />
          </mxGeometry>
        </mxCell>
        <mxCell id="5B9JckV7mlWKg8Jw2MZ--39" value="Extends" style="endArrow=block;endSize=16;endFill=0;html=1;rounded=0;exitX=0.619;exitY=-0.028;exitDx=0;exitDy=0;entryX=0.923;entryY=1.02;entryDx=0;entryDy=0;entryPerimeter=0;exitPerimeter=0;" edge="1" parent="1" source="5B9JckV7mlWKg8Jw2MZ--34" target="5B9JckV7mlWKg8Jw2MZ--17">
          <mxGeometry width="160" relative="1" as="geometry">
            <mxPoint x="660" y="170" as="sourcePoint" />
            <mxPoint x="570" y="60" as="targetPoint" />
          </mxGeometry>
        </mxCell>
        <mxCell id="5B9JckV7mlWKg8Jw2MZ--40" value="DelegatingCatalogExtension" style="swimlane;fontStyle=1;align=center;verticalAlign=top;childLayout=stackLayout;horizontal=1;startSize=26;horizontalStack=0;resizeParent=1;resizeParentMax=0;resizeLast=0;collapsible=1;marginBottom=0;" vertex="1" parent="1">
          <mxGeometry x="110" y="420" width="160" height="170" as="geometry" />
        </mxCell>
        <mxCell id="5B9JckV7mlWKg8Jw2MZ--41" value="+ delegate: CatalogPlugin" style="text;strokeColor=none;fillColor=none;align=left;verticalAlign=top;spacingLeft=4;spacingRight=4;overflow=hidden;rotatable=0;points=[[0,0.5],[1,0.5]];portConstraint=eastwest;" vertex="1" parent="5B9JckV7mlWKg8Jw2MZ--40">
          <mxGeometry y="26" width="160" height="26" as="geometry" />
        </mxCell>
        <mxCell id="5B9JckV7mlWKg8Jw2MZ--42" value="" style="line;strokeWidth=1;fillColor=none;align=left;verticalAlign=middle;spacingTop=-1;spacingLeft=3;spacingRight=3;rotatable=0;labelPosition=right;points=[];portConstraint=eastwest;" vertex="1" parent="5B9JckV7mlWKg8Jw2MZ--40">
          <mxGeometry y="52" width="160" height="8" as="geometry" />
        </mxCell>
        <mxCell id="5B9JckV7mlWKg8Jw2MZ--43" value="+ listTables&#xa;+ tableExists&#xa;+ dropTable&#xa;+ loadTable&#xa;+ createTable&#xa;+ listNamespaces&#xa;+xxxx" style="text;strokeColor=none;fillColor=none;align=left;verticalAlign=top;spacingLeft=4;spacingRight=4;overflow=hidden;rotatable=0;points=[[0,0.5],[1,0.5]];portConstraint=eastwest;" vertex="1" parent="5B9JckV7mlWKg8Jw2MZ--40">
          <mxGeometry y="60" width="160" height="110" as="geometry" />
        </mxCell>
        <mxCell id="5B9JckV7mlWKg8Jw2MZ--44" value="" style="endArrow=block;dashed=1;endFill=0;endSize=12;html=1;rounded=0;entryX=0;entryY=0.75;entryDx=0;entryDy=0;exitX=0.644;exitY=0;exitDx=0;exitDy=0;exitPerimeter=0;" edge="1" parent="1" source="5B9JckV7mlWKg8Jw2MZ--40" target="5B9JckV7mlWKg8Jw2MZ--19">
          <mxGeometry width="160" relative="1" as="geometry">
            <mxPoint x="170" y="340" as="sourcePoint" />
            <mxPoint x="330" y="340" as="targetPoint" />
          </mxGeometry>
        </mxCell>
        <mxCell id="5B9JckV7mlWKg8Jw2MZ--45" value="«interface»&lt;br&gt;&lt;b&gt;Table&lt;/b&gt;" style="html=1;" vertex="1" parent="1">
          <mxGeometry x="1230" y="10" width="540" height="50" as="geometry" />
        </mxCell>
        <mxCell id="5B9JckV7mlWKg8Jw2MZ--46" value="«interface»&lt;br&gt;&lt;b&gt;SupportsPartitionManagement&lt;/b&gt;" style="html=1;" vertex="1" parent="1">
          <mxGeometry x="1020" y="130" width="180" height="50" as="geometry" />
        </mxCell>
        <mxCell id="5B9JckV7mlWKg8Jw2MZ--47" value="«interface»&lt;br&gt;&lt;b&gt;SupportsWrite&lt;/b&gt;" style="html=1;" vertex="1" parent="1">
          <mxGeometry x="1520" y="130" width="110" height="50" as="geometry" />
        </mxCell>
        <mxCell id="5B9JckV7mlWKg8Jw2MZ--48" value="«interface»&lt;br&gt;StagedTable" style="html=1;fontStyle=1" vertex="1" parent="1">
          <mxGeometry x="1210" y="130" width="110" height="50" as="geometry" />
        </mxCell>
        <mxCell id="5B9JckV7mlWKg8Jw2MZ--49" value="Extends" style="endArrow=block;endSize=16;endFill=0;html=1;rounded=0;exitX=0.5;exitY=0;exitDx=0;exitDy=0;entryX=0.019;entryY=1.06;entryDx=0;entryDy=0;entryPerimeter=0;" edge="1" parent="1" source="5B9JckV7mlWKg8Jw2MZ--46" target="5B9JckV7mlWKg8Jw2MZ--45">
          <mxGeometry width="160" relative="1" as="geometry">
            <mxPoint x="749.04" y="375.0160000000001" as="sourcePoint" />
            <mxPoint x="739.99" y="221" as="targetPoint" />
          </mxGeometry>
        </mxCell>
        <mxCell id="5B9JckV7mlWKg8Jw2MZ--50" value="Extends" style="endArrow=block;endSize=16;endFill=0;html=1;rounded=0;exitX=0.5;exitY=0;exitDx=0;exitDy=0;entryX=0.079;entryY=1.02;entryDx=0;entryDy=0;entryPerimeter=0;" edge="1" parent="1" source="5B9JckV7mlWKg8Jw2MZ--48" target="5B9JckV7mlWKg8Jw2MZ--45">
          <mxGeometry width="160" relative="1" as="geometry">
            <mxPoint x="1180" y="130" as="sourcePoint" />
            <mxPoint x="1350.0100000000002" y="74" as="targetPoint" />
          </mxGeometry>
        </mxCell>
        <mxCell id="5B9JckV7mlWKg8Jw2MZ--51" value="Extends" style="endArrow=block;endSize=16;endFill=0;html=1;rounded=0;exitX=0.25;exitY=0;exitDx=0;exitDy=0;entryX=0.676;entryY=1.08;entryDx=0;entryDy=0;entryPerimeter=0;" edge="1" parent="1" source="5B9JckV7mlWKg8Jw2MZ--47" target="5B9JckV7mlWKg8Jw2MZ--45">
          <mxGeometry width="160" relative="1" as="geometry">
            <mxPoint x="1405" y="130" as="sourcePoint" />
            <mxPoint x="1402.04" y="71" as="targetPoint" />
          </mxGeometry>
        </mxCell>
        <mxCell id="5B9JckV7mlWKg8Jw2MZ--53" value="«interface»&lt;br&gt;&lt;b&gt;SupportsRead&lt;/b&gt;" style="html=1;" vertex="1" parent="1">
          <mxGeometry x="1330" y="130" width="110" height="50" as="geometry" />
        </mxCell>
        <mxCell id="5B9JckV7mlWKg8Jw2MZ--54" value="Extends" style="endArrow=block;endSize=16;endFill=0;html=1;rounded=0;exitX=0.5;exitY=0;exitDx=0;exitDy=0;entryX=0.327;entryY=1.02;entryDx=0;entryDy=0;entryPerimeter=0;" edge="1" parent="1" source="5B9JckV7mlWKg8Jw2MZ--53" target="5B9JckV7mlWKg8Jw2MZ--45">
          <mxGeometry width="160" relative="1" as="geometry">
            <mxPoint x="1465" y="140" as="sourcePoint" />
            <mxPoint x="1469.7199999999998" y="71" as="targetPoint" />
          </mxGeometry>
        </mxCell>
        <mxCell id="5B9JckV7mlWKg8Jw2MZ--55" value="«interface»&lt;br&gt;&lt;b&gt;SupportsMetadataColumns&lt;/b&gt;" style="html=1;" vertex="1" parent="1">
          <mxGeometry x="1640" y="130" width="160" height="50" as="geometry" />
        </mxCell>
        <mxCell id="5B9JckV7mlWKg8Jw2MZ--56" value="Extends" style="endArrow=block;endSize=16;endFill=0;html=1;rounded=0;entryX=0.863;entryY=1.04;entryDx=0;entryDy=0;entryPerimeter=0;" edge="1" parent="1" source="5B9JckV7mlWKg8Jw2MZ--55" target="5B9JckV7mlWKg8Jw2MZ--45">
          <mxGeometry width="160" relative="1" as="geometry">
            <mxPoint x="1557.5" y="140" as="sourcePoint" />
            <mxPoint x="1596.88" y="74" as="targetPoint" />
          </mxGeometry>
        </mxCell>
        <mxCell id="5B9JckV7mlWKg8Jw2MZ--57" value="ForeachWriterTable" style="swimlane;fontStyle=1;align=center;verticalAlign=top;childLayout=stackLayout;horizontal=1;startSize=26;horizontalStack=0;resizeParent=1;resizeParentMax=0;resizeLast=0;collapsible=1;marginBottom=0;" vertex="1" parent="1">
          <mxGeometry x="1820" y="130" width="160" height="86" as="geometry" />
        </mxCell>
        <mxCell id="5B9JckV7mlWKg8Jw2MZ--58" value="+ field: type" style="text;strokeColor=none;fillColor=none;align=left;verticalAlign=top;spacingLeft=4;spacingRight=4;overflow=hidden;rotatable=0;points=[[0,0.5],[1,0.5]];portConstraint=eastwest;" vertex="1" parent="5B9JckV7mlWKg8Jw2MZ--57">
          <mxGeometry y="26" width="160" height="26" as="geometry" />
        </mxCell>
        <mxCell id="5B9JckV7mlWKg8Jw2MZ--59" value="" style="line;strokeWidth=1;fillColor=none;align=left;verticalAlign=middle;spacingTop=-1;spacingLeft=3;spacingRight=3;rotatable=0;labelPosition=right;points=[];portConstraint=eastwest;" vertex="1" parent="5B9JckV7mlWKg8Jw2MZ--57">
          <mxGeometry y="52" width="160" height="8" as="geometry" />
        </mxCell>
        <mxCell id="5B9JckV7mlWKg8Jw2MZ--60" value="+ method(type): type" style="text;strokeColor=none;fillColor=none;align=left;verticalAlign=top;spacingLeft=4;spacingRight=4;overflow=hidden;rotatable=0;points=[[0,0.5],[1,0.5]];portConstraint=eastwest;" vertex="1" parent="5B9JckV7mlWKg8Jw2MZ--57">
          <mxGeometry y="60" width="160" height="26" as="geometry" />
        </mxCell>
        <mxCell id="5B9JckV7mlWKg8Jw2MZ--61" value="Extends" style="endArrow=block;endSize=16;endFill=0;html=1;rounded=0;entryX=1;entryY=1;entryDx=0;entryDy=0;exitX=0.119;exitY=-0.047;exitDx=0;exitDy=0;exitPerimeter=0;" edge="1" parent="1" source="5B9JckV7mlWKg8Jw2MZ--57" target="5B9JckV7mlWKg8Jw2MZ--45">
          <mxGeometry width="160" relative="1" as="geometry">
            <mxPoint x="1713.3172043010754" y="140" as="sourcePoint" />
            <mxPoint x="1667.94" y="72" as="targetPoint" />
          </mxGeometry>
        </mxCell>
        <mxCell id="5B9JckV7mlWKg8Jw2MZ--62" value="JDBCTable" style="swimlane;fontStyle=1;align=center;verticalAlign=top;childLayout=stackLayout;horizontal=1;startSize=26;horizontalStack=0;resizeParent=1;resizeParentMax=0;resizeLast=0;collapsible=1;marginBottom=0;" vertex="1" parent="1">
          <mxGeometry x="1380" y="320" width="160" height="86" as="geometry" />
        </mxCell>
        <mxCell id="5B9JckV7mlWKg8Jw2MZ--63" value="+ field: type" style="text;strokeColor=none;fillColor=none;align=left;verticalAlign=top;spacingLeft=4;spacingRight=4;overflow=hidden;rotatable=0;points=[[0,0.5],[1,0.5]];portConstraint=eastwest;" vertex="1" parent="5B9JckV7mlWKg8Jw2MZ--62">
          <mxGeometry y="26" width="160" height="26" as="geometry" />
        </mxCell>
        <mxCell id="5B9JckV7mlWKg8Jw2MZ--64" value="" style="line;strokeWidth=1;fillColor=none;align=left;verticalAlign=middle;spacingTop=-1;spacingLeft=3;spacingRight=3;rotatable=0;labelPosition=right;points=[];portConstraint=eastwest;" vertex="1" parent="5B9JckV7mlWKg8Jw2MZ--62">
          <mxGeometry y="52" width="160" height="8" as="geometry" />
        </mxCell>
        <mxCell id="5B9JckV7mlWKg8Jw2MZ--65" value="+ method(type): type" style="text;strokeColor=none;fillColor=none;align=left;verticalAlign=top;spacingLeft=4;spacingRight=4;overflow=hidden;rotatable=0;points=[[0,0.5],[1,0.5]];portConstraint=eastwest;" vertex="1" parent="5B9JckV7mlWKg8Jw2MZ--62">
          <mxGeometry y="60" width="160" height="26" as="geometry" />
        </mxCell>
        <mxCell id="5B9JckV7mlWKg8Jw2MZ--66" value="" style="endArrow=block;endSize=16;endFill=0;html=1;rounded=0;exitX=0.5;exitY=0;exitDx=0;exitDy=0;entryX=0.5;entryY=1;entryDx=0;entryDy=0;" edge="1" parent="1" source="5B9JckV7mlWKg8Jw2MZ--62" target="5B9JckV7mlWKg8Jw2MZ--45">
          <mxGeometry width="160" relative="1" as="geometry">
            <mxPoint x="1467" y="140" as="sourcePoint" />
            <mxPoint x="1468.96" y="71" as="targetPoint" />
          </mxGeometry>
        </mxCell>
        <mxCell id="5B9JckV7mlWKg8Jw2MZ--67" value="" style="endArrow=block;endSize=16;endFill=0;html=1;rounded=0;exitX=0.5;exitY=0;exitDx=0;exitDy=0;entryX=0.25;entryY=1;entryDx=0;entryDy=0;" edge="1" parent="1" source="5B9JckV7mlWKg8Jw2MZ--62" target="5B9JckV7mlWKg8Jw2MZ--47">
          <mxGeometry width="160" relative="1" as="geometry">
            <mxPoint x="1470" y="330" as="sourcePoint" />
            <mxPoint x="1480" y="70" as="targetPoint" />
          </mxGeometry>
        </mxCell>
        <mxCell id="5B9JckV7mlWKg8Jw2MZ--68" value="" style="endArrow=block;endSize=16;endFill=0;html=1;rounded=0;exitX=0.5;exitY=0;exitDx=0;exitDy=0;" edge="1" parent="1" source="5B9JckV7mlWKg8Jw2MZ--62" target="5B9JckV7mlWKg8Jw2MZ--53">
          <mxGeometry width="160" relative="1" as="geometry">
            <mxPoint x="1470" y="330" as="sourcePoint" />
            <mxPoint x="1480" y="70" as="targetPoint" />
          </mxGeometry>
        </mxCell>
        <mxCell id="5B9JckV7mlWKg8Jw2MZ--69" value="«interface»&lt;br&gt;&lt;b&gt;Sink&lt;/b&gt;" style="html=1;" vertex="1" parent="1">
          <mxGeometry x="2290" y="140" width="100" height="50" as="geometry" />
        </mxCell>
        <mxCell id="5B9JckV7mlWKg8Jw2MZ--70" value="Extends" style="endArrow=block;endSize=16;endFill=0;html=1;rounded=0;entryX=1;entryY=0.5;entryDx=0;entryDy=0;exitX=0.18;exitY=0;exitDx=0;exitDy=0;exitPerimeter=0;" edge="1" parent="1" source="5B9JckV7mlWKg8Jw2MZ--69" target="5B9JckV7mlWKg8Jw2MZ--45">
          <mxGeometry width="160" relative="1" as="geometry">
            <mxPoint x="1849.04" y="135.95799999999997" as="sourcePoint" />
            <mxPoint x="1780" y="70" as="targetPoint" />
          </mxGeometry>
        </mxCell>
        <mxCell id="5B9JckV7mlWKg8Jw2MZ--71" value="FileTable" style="swimlane;fontStyle=1;align=center;verticalAlign=top;childLayout=stackLayout;horizontal=1;startSize=26;horizontalStack=0;resizeParent=1;resizeParentMax=0;resizeLast=0;collapsible=1;marginBottom=0;" vertex="1" parent="1">
          <mxGeometry x="1570" y="320" width="120" height="86" as="geometry" />
        </mxCell>
        <mxCell id="5B9JckV7mlWKg8Jw2MZ--72" value="+ field: type" style="text;strokeColor=none;fillColor=none;align=left;verticalAlign=top;spacingLeft=4;spacingRight=4;overflow=hidden;rotatable=0;points=[[0,0.5],[1,0.5]];portConstraint=eastwest;" vertex="1" parent="5B9JckV7mlWKg8Jw2MZ--71">
          <mxGeometry y="26" width="120" height="26" as="geometry" />
        </mxCell>
        <mxCell id="5B9JckV7mlWKg8Jw2MZ--73" value="" style="line;strokeWidth=1;fillColor=none;align=left;verticalAlign=middle;spacingTop=-1;spacingLeft=3;spacingRight=3;rotatable=0;labelPosition=right;points=[];portConstraint=eastwest;" vertex="1" parent="5B9JckV7mlWKg8Jw2MZ--71">
          <mxGeometry y="52" width="120" height="8" as="geometry" />
        </mxCell>
        <mxCell id="5B9JckV7mlWKg8Jw2MZ--74" value="+ method(type): type" style="text;strokeColor=none;fillColor=none;align=left;verticalAlign=top;spacingLeft=4;spacingRight=4;overflow=hidden;rotatable=0;points=[[0,0.5],[1,0.5]];portConstraint=eastwest;" vertex="1" parent="5B9JckV7mlWKg8Jw2MZ--71">
          <mxGeometry y="60" width="120" height="26" as="geometry" />
        </mxCell>
        <mxCell id="5B9JckV7mlWKg8Jw2MZ--75" value="" style="endArrow=block;endSize=16;endFill=0;html=1;rounded=0;exitX=0.5;exitY=0;exitDx=0;exitDy=0;entryX=0.409;entryY=1.04;entryDx=0;entryDy=0;entryPerimeter=0;" edge="1" parent="1" source="5B9JckV7mlWKg8Jw2MZ--71" target="5B9JckV7mlWKg8Jw2MZ--47">
          <mxGeometry width="160" relative="1" as="geometry">
            <mxPoint x="1470" y="330" as="sourcePoint" />
            <mxPoint x="1557.5" y="190" as="targetPoint" />
          </mxGeometry>
        </mxCell>
        <mxCell id="5B9JckV7mlWKg8Jw2MZ--76" value="" style="endArrow=block;endSize=16;endFill=0;html=1;rounded=0;exitX=0.5;exitY=0;exitDx=0;exitDy=0;entryX=0.882;entryY=1.04;entryDx=0;entryDy=0;entryPerimeter=0;" edge="1" parent="1" source="5B9JckV7mlWKg8Jw2MZ--71" target="5B9JckV7mlWKg8Jw2MZ--53">
          <mxGeometry width="160" relative="1" as="geometry">
            <mxPoint x="1470" y="330" as="sourcePoint" />
            <mxPoint x="1406.3636363636365" y="190" as="targetPoint" />
          </mxGeometry>
        </mxCell>
        <mxCell id="5B9JckV7mlWKg8Jw2MZ--77" value="" style="endArrow=block;endSize=16;endFill=0;html=1;rounded=0;entryX=0.75;entryY=1;entryDx=0;entryDy=0;exitX=0.5;exitY=0;exitDx=0;exitDy=0;" edge="1" parent="1" source="5B9JckV7mlWKg8Jw2MZ--71" target="5B9JckV7mlWKg8Jw2MZ--45">
          <mxGeometry width="160" relative="1" as="geometry">
            <mxPoint x="1650" y="320" as="sourcePoint" />
            <mxPoint x="1574.9899999999998" y="192" as="targetPoint" />
          </mxGeometry>
        </mxCell>
        <mxCell id="5B9JckV7mlWKg8Jw2MZ--79" value="V1Table" style="swimlane;fontStyle=1;align=center;verticalAlign=top;childLayout=stackLayout;horizontal=1;startSize=26;horizontalStack=0;resizeParent=1;resizeParentMax=0;resizeLast=0;collapsible=1;marginBottom=0;" vertex="1" parent="1">
          <mxGeometry x="850" y="130" width="160" height="86" as="geometry" />
        </mxCell>
        <mxCell id="5B9JckV7mlWKg8Jw2MZ--80" value="+ field: type" style="text;strokeColor=none;fillColor=none;align=left;verticalAlign=top;spacingLeft=4;spacingRight=4;overflow=hidden;rotatable=0;points=[[0,0.5],[1,0.5]];portConstraint=eastwest;" vertex="1" parent="5B9JckV7mlWKg8Jw2MZ--79">
          <mxGeometry y="26" width="160" height="26" as="geometry" />
        </mxCell>
        <mxCell id="5B9JckV7mlWKg8Jw2MZ--81" value="" style="line;strokeWidth=1;fillColor=none;align=left;verticalAlign=middle;spacingTop=-1;spacingLeft=3;spacingRight=3;rotatable=0;labelPosition=right;points=[];portConstraint=eastwest;" vertex="1" parent="5B9JckV7mlWKg8Jw2MZ--79">
          <mxGeometry y="52" width="160" height="8" as="geometry" />
        </mxCell>
        <mxCell id="5B9JckV7mlWKg8Jw2MZ--82" value="+ method(type): type" style="text;strokeColor=none;fillColor=none;align=left;verticalAlign=top;spacingLeft=4;spacingRight=4;overflow=hidden;rotatable=0;points=[[0,0.5],[1,0.5]];portConstraint=eastwest;" vertex="1" parent="5B9JckV7mlWKg8Jw2MZ--79">
          <mxGeometry y="60" width="160" height="26" as="geometry" />
        </mxCell>
        <mxCell id="5B9JckV7mlWKg8Jw2MZ--83" value="Extends" style="endArrow=block;endSize=16;endFill=0;html=1;rounded=0;exitX=0.838;exitY=-0.058;exitDx=0;exitDy=0;entryX=0;entryY=0.75;entryDx=0;entryDy=0;exitPerimeter=0;" edge="1" parent="1" source="5B9JckV7mlWKg8Jw2MZ--79" target="5B9JckV7mlWKg8Jw2MZ--45">
          <mxGeometry width="160" relative="1" as="geometry">
            <mxPoint x="1120" y="140" as="sourcePoint" />
            <mxPoint x="1250.2600000000002" y="73" as="targetPoint" />
          </mxGeometry>
        </mxCell>
        <mxCell id="5B9JckV7mlWKg8Jw2MZ--84" value="MemorySink" style="swimlane;fontStyle=1;align=center;verticalAlign=top;childLayout=stackLayout;horizontal=1;startSize=26;horizontalStack=0;resizeParent=1;resizeParentMax=0;resizeLast=0;collapsible=1;marginBottom=0;" vertex="1" parent="1">
          <mxGeometry x="1990" y="130" width="120" height="86" as="geometry" />
        </mxCell>
        <mxCell id="5B9JckV7mlWKg8Jw2MZ--85" value="+ field: type" style="text;strokeColor=none;fillColor=none;align=left;verticalAlign=top;spacingLeft=4;spacingRight=4;overflow=hidden;rotatable=0;points=[[0,0.5],[1,0.5]];portConstraint=eastwest;" vertex="1" parent="5B9JckV7mlWKg8Jw2MZ--84">
          <mxGeometry y="26" width="120" height="26" as="geometry" />
        </mxCell>
        <mxCell id="5B9JckV7mlWKg8Jw2MZ--86" value="" style="line;strokeWidth=1;fillColor=none;align=left;verticalAlign=middle;spacingTop=-1;spacingLeft=3;spacingRight=3;rotatable=0;labelPosition=right;points=[];portConstraint=eastwest;" vertex="1" parent="5B9JckV7mlWKg8Jw2MZ--84">
          <mxGeometry y="52" width="120" height="8" as="geometry" />
        </mxCell>
        <mxCell id="5B9JckV7mlWKg8Jw2MZ--87" value="+ method(type): type" style="text;strokeColor=none;fillColor=none;align=left;verticalAlign=top;spacingLeft=4;spacingRight=4;overflow=hidden;rotatable=0;points=[[0,0.5],[1,0.5]];portConstraint=eastwest;" vertex="1" parent="5B9JckV7mlWKg8Jw2MZ--84">
          <mxGeometry y="60" width="120" height="26" as="geometry" />
        </mxCell>
        <mxCell id="5B9JckV7mlWKg8Jw2MZ--88" value="Extends" style="endArrow=block;endSize=16;endFill=0;html=1;rounded=0;entryX=1;entryY=0.75;entryDx=0;entryDy=0;exitX=0.392;exitY=0;exitDx=0;exitDy=0;exitPerimeter=0;" edge="1" parent="1" source="5B9JckV7mlWKg8Jw2MZ--84" target="5B9JckV7mlWKg8Jw2MZ--45">
          <mxGeometry width="160" relative="1" as="geometry">
            <mxPoint x="1849.04" y="135.95799999999997" as="sourcePoint" />
            <mxPoint x="1780" y="70" as="targetPoint" />
          </mxGeometry>
        </mxCell>
        <mxCell id="5B9JckV7mlWKg8Jw2MZ--89" value="MemoryStreamTable/ RateStreamTable" style="swimlane;fontStyle=1;align=center;verticalAlign=top;childLayout=stackLayout;horizontal=1;startSize=26;horizontalStack=0;resizeParent=1;resizeParentMax=0;resizeLast=0;collapsible=1;marginBottom=0;" vertex="1" parent="1">
          <mxGeometry x="1140" y="282" width="220" height="86" as="geometry" />
        </mxCell>
        <mxCell id="5B9JckV7mlWKg8Jw2MZ--90" value="+ field: type" style="text;strokeColor=none;fillColor=none;align=left;verticalAlign=top;spacingLeft=4;spacingRight=4;overflow=hidden;rotatable=0;points=[[0,0.5],[1,0.5]];portConstraint=eastwest;" vertex="1" parent="5B9JckV7mlWKg8Jw2MZ--89">
          <mxGeometry y="26" width="220" height="26" as="geometry" />
        </mxCell>
        <mxCell id="5B9JckV7mlWKg8Jw2MZ--91" value="" style="line;strokeWidth=1;fillColor=none;align=left;verticalAlign=middle;spacingTop=-1;spacingLeft=3;spacingRight=3;rotatable=0;labelPosition=right;points=[];portConstraint=eastwest;" vertex="1" parent="5B9JckV7mlWKg8Jw2MZ--89">
          <mxGeometry y="52" width="220" height="8" as="geometry" />
        </mxCell>
        <mxCell id="5B9JckV7mlWKg8Jw2MZ--92" value="+ method(type): type" style="text;strokeColor=none;fillColor=none;align=left;verticalAlign=top;spacingLeft=4;spacingRight=4;overflow=hidden;rotatable=0;points=[[0,0.5],[1,0.5]];portConstraint=eastwest;" vertex="1" parent="5B9JckV7mlWKg8Jw2MZ--89">
          <mxGeometry y="60" width="220" height="26" as="geometry" />
        </mxCell>
        <mxCell id="5B9JckV7mlWKg8Jw2MZ--94" value="" style="endArrow=block;endSize=16;endFill=0;html=1;rounded=0;entryX=0.161;entryY=1.06;entryDx=0;entryDy=0;entryPerimeter=0;" edge="1" parent="1" source="5B9JckV7mlWKg8Jw2MZ--89" target="5B9JckV7mlWKg8Jw2MZ--45">
          <mxGeometry width="160" relative="1" as="geometry">
            <mxPoint x="1275" y="140" as="sourcePoint" />
            <mxPoint x="1282.6599999999999" y="71" as="targetPoint" />
          </mxGeometry>
        </mxCell>
        <mxCell id="5B9JckV7mlWKg8Jw2MZ--95" value="" style="endArrow=block;endSize=16;endFill=0;html=1;rounded=0;exitX=0.6;exitY=-0.035;exitDx=0;exitDy=0;exitPerimeter=0;entryX=0.373;entryY=1.04;entryDx=0;entryDy=0;entryPerimeter=0;" edge="1" parent="1" source="5B9JckV7mlWKg8Jw2MZ--89" target="5B9JckV7mlWKg8Jw2MZ--53">
          <mxGeometry width="160" relative="1" as="geometry">
            <mxPoint x="1279.3451145038166" y="292" as="sourcePoint" />
            <mxPoint x="1326.94" y="73" as="targetPoint" />
          </mxGeometry>
        </mxCell>
        <mxCell id="5B9JckV7mlWKg8Jw2MZ--96" value="KafkaTable" style="swimlane;fontStyle=1;align=center;verticalAlign=top;childLayout=stackLayout;horizontal=1;startSize=26;horizontalStack=0;resizeParent=1;resizeParentMax=0;resizeLast=0;collapsible=1;marginBottom=0;" vertex="1" parent="1">
          <mxGeometry x="970" y="290" width="160" height="86" as="geometry" />
        </mxCell>
        <mxCell id="5B9JckV7mlWKg8Jw2MZ--97" value="+ field: type" style="text;strokeColor=none;fillColor=none;align=left;verticalAlign=top;spacingLeft=4;spacingRight=4;overflow=hidden;rotatable=0;points=[[0,0.5],[1,0.5]];portConstraint=eastwest;" vertex="1" parent="5B9JckV7mlWKg8Jw2MZ--96">
          <mxGeometry y="26" width="160" height="26" as="geometry" />
        </mxCell>
        <mxCell id="5B9JckV7mlWKg8Jw2MZ--98" value="" style="line;strokeWidth=1;fillColor=none;align=left;verticalAlign=middle;spacingTop=-1;spacingLeft=3;spacingRight=3;rotatable=0;labelPosition=right;points=[];portConstraint=eastwest;" vertex="1" parent="5B9JckV7mlWKg8Jw2MZ--96">
          <mxGeometry y="52" width="160" height="8" as="geometry" />
        </mxCell>
        <mxCell id="5B9JckV7mlWKg8Jw2MZ--99" value="+ method(type): type" style="text;strokeColor=none;fillColor=none;align=left;verticalAlign=top;spacingLeft=4;spacingRight=4;overflow=hidden;rotatable=0;points=[[0,0.5],[1,0.5]];portConstraint=eastwest;" vertex="1" parent="5B9JckV7mlWKg8Jw2MZ--96">
          <mxGeometry y="60" width="160" height="26" as="geometry" />
        </mxCell>
        <mxCell id="5B9JckV7mlWKg8Jw2MZ--100" value="" style="endArrow=block;endSize=16;endFill=0;html=1;rounded=0;exitX=0.25;exitY=0;exitDx=0;exitDy=0;entryX=0.373;entryY=1.08;entryDx=0;entryDy=0;entryPerimeter=0;" edge="1" parent="1" source="5B9JckV7mlWKg8Jw2MZ--96" target="5B9JckV7mlWKg8Jw2MZ--53">
          <mxGeometry width="160" relative="1" as="geometry">
            <mxPoint x="1282" y="288.99" as="sourcePoint" />
            <mxPoint x="1372.2159045084281" y="190" as="targetPoint" />
          </mxGeometry>
        </mxCell>
        <mxCell id="5B9JckV7mlWKg8Jw2MZ--101" value="" style="endArrow=block;endSize=16;endFill=0;html=1;rounded=0;entryX=0.345;entryY=1.02;entryDx=0;entryDy=0;entryPerimeter=0;" edge="1" parent="1" target="5B9JckV7mlWKg8Jw2MZ--47">
          <mxGeometry width="160" relative="1" as="geometry">
            <mxPoint x="1020" y="290" as="sourcePoint" />
            <mxPoint x="1557.5" y="190" as="targetPoint" />
          </mxGeometry>
        </mxCell>
        <mxCell id="5B9JckV7mlWKg8Jw2MZ--103" value="TextSocketTable" style="swimlane;fontStyle=1;align=center;verticalAlign=top;childLayout=stackLayout;horizontal=1;startSize=26;horizontalStack=0;resizeParent=1;resizeParentMax=0;resizeLast=0;collapsible=1;marginBottom=0;" vertex="1" parent="1">
          <mxGeometry x="1700" y="320" width="130" height="86" as="geometry" />
        </mxCell>
        <mxCell id="5B9JckV7mlWKg8Jw2MZ--104" value="+ field: type" style="text;strokeColor=none;fillColor=none;align=left;verticalAlign=top;spacingLeft=4;spacingRight=4;overflow=hidden;rotatable=0;points=[[0,0.5],[1,0.5]];portConstraint=eastwest;" vertex="1" parent="5B9JckV7mlWKg8Jw2MZ--103">
          <mxGeometry y="26" width="130" height="26" as="geometry" />
        </mxCell>
        <mxCell id="5B9JckV7mlWKg8Jw2MZ--105" value="" style="line;strokeWidth=1;fillColor=none;align=left;verticalAlign=middle;spacingTop=-1;spacingLeft=3;spacingRight=3;rotatable=0;labelPosition=right;points=[];portConstraint=eastwest;" vertex="1" parent="5B9JckV7mlWKg8Jw2MZ--103">
          <mxGeometry y="52" width="130" height="8" as="geometry" />
        </mxCell>
        <mxCell id="5B9JckV7mlWKg8Jw2MZ--106" value="+ method(type): type" style="text;strokeColor=none;fillColor=none;align=left;verticalAlign=top;spacingLeft=4;spacingRight=4;overflow=hidden;rotatable=0;points=[[0,0.5],[1,0.5]];portConstraint=eastwest;" vertex="1" parent="5B9JckV7mlWKg8Jw2MZ--103">
          <mxGeometry y="60" width="130" height="26" as="geometry" />
        </mxCell>
        <mxCell id="5B9JckV7mlWKg8Jw2MZ--107" value="" style="endArrow=block;endSize=16;endFill=0;html=1;rounded=0;entryX=0.75;entryY=1;entryDx=0;entryDy=0;exitX=0.25;exitY=0;exitDx=0;exitDy=0;" edge="1" parent="1" source="5B9JckV7mlWKg8Jw2MZ--103" target="5B9JckV7mlWKg8Jw2MZ--53">
          <mxGeometry width="160" relative="1" as="geometry">
            <mxPoint x="1270.9863358778625" y="292" as="sourcePoint" />
            <mxPoint x="1326.94" y="73" as="targetPoint" />
          </mxGeometry>
        </mxCell>
        <mxCell id="5B9JckV7mlWKg8Jw2MZ--108" value="" style="endArrow=block;endSize=16;endFill=0;html=1;rounded=0;entryX=0.75;entryY=1;entryDx=0;entryDy=0;exitX=0.25;exitY=0;exitDx=0;exitDy=0;" edge="1" parent="1" source="5B9JckV7mlWKg8Jw2MZ--103">
          <mxGeometry width="160" relative="1" as="geometry">
            <mxPoint x="1630" y="320" as="sourcePoint" />
            <mxPoint x="1635" y="60" as="targetPoint" />
          </mxGeometry>
        </mxCell>
        <mxCell id="5B9JckV7mlWKg8Jw2MZ--109" value="«interface»&lt;br&gt;&lt;b&gt;SupportsAtomicPartitionManagement&lt;/b&gt;" style="html=1;" vertex="1" parent="1">
          <mxGeometry x="890" y="220" width="210" height="50" as="geometry" />
        </mxCell>
        <mxCell id="5B9JckV7mlWKg8Jw2MZ--110" value="" style="endArrow=block;endSize=16;endFill=0;html=1;rounded=0;exitX=0.75;exitY=0;exitDx=0;exitDy=0;entryX=0.394;entryY=1.08;entryDx=0;entryDy=0;entryPerimeter=0;" edge="1" parent="1" source="5B9JckV7mlWKg8Jw2MZ--109" target="5B9JckV7mlWKg8Jw2MZ--46">
          <mxGeometry width="160" relative="1" as="geometry">
            <mxPoint x="1120" y="140" as="sourcePoint" />
            <mxPoint x="1250.2600000000002" y="73" as="targetPoint" />
          </mxGeometry>
        </mxCell>
        <mxCell id="5B9JckV7mlWKg8Jw2MZ--111" value="CSVTable/OrcTable/AvroTable&#xa;/JsonTable/TextTable/ParquetTable" style="swimlane;fontStyle=1;align=center;verticalAlign=top;childLayout=stackLayout;horizontal=1;startSize=40;horizontalStack=0;resizeParent=1;resizeParentMax=0;resizeLast=0;collapsible=1;marginBottom=0;" vertex="1" parent="1">
          <mxGeometry x="1540" y="460" width="210" height="94" as="geometry" />
        </mxCell>
        <mxCell id="5B9JckV7mlWKg8Jw2MZ--113" value="" style="line;strokeWidth=1;fillColor=none;align=left;verticalAlign=middle;spacingTop=-1;spacingLeft=3;spacingRight=3;rotatable=0;labelPosition=right;points=[];portConstraint=eastwest;" vertex="1" parent="5B9JckV7mlWKg8Jw2MZ--111">
          <mxGeometry y="40" width="210" height="54" as="geometry" />
        </mxCell>
        <mxCell id="5B9JckV7mlWKg8Jw2MZ--115" value="" style="endArrow=block;endSize=16;endFill=0;html=1;rounded=0;exitX=0.381;exitY=0;exitDx=0;exitDy=0;entryX=0.425;entryY=1;entryDx=0;entryDy=0;entryPerimeter=0;exitPerimeter=0;" edge="1" parent="1" source="5B9JckV7mlWKg8Jw2MZ--111" target="5B9JckV7mlWKg8Jw2MZ--74">
          <mxGeometry width="160" relative="1" as="geometry">
            <mxPoint x="1057.5" y="230" as="sourcePoint" />
            <mxPoint x="1100.92" y="194" as="targetPoint" />
          </mxGeometry>
        </mxCell>
        <mxCell id="5B9JckV7mlWKg8Jw2MZ--116" value="FileStreamSink/ KafkaSink/ ForeachBatchSink" style="swimlane;fontStyle=1;align=center;verticalAlign=top;childLayout=stackLayout;horizontal=1;startSize=26;horizontalStack=0;resizeParent=1;resizeParentMax=0;resizeLast=0;collapsible=1;marginBottom=0;" vertex="1" parent="1">
          <mxGeometry x="2240" y="270" width="270" height="86" as="geometry" />
        </mxCell>
        <mxCell id="5B9JckV7mlWKg8Jw2MZ--117" value="+ field: type" style="text;strokeColor=none;fillColor=none;align=left;verticalAlign=top;spacingLeft=4;spacingRight=4;overflow=hidden;rotatable=0;points=[[0,0.5],[1,0.5]];portConstraint=eastwest;" vertex="1" parent="5B9JckV7mlWKg8Jw2MZ--116">
          <mxGeometry y="26" width="270" height="26" as="geometry" />
        </mxCell>
        <mxCell id="5B9JckV7mlWKg8Jw2MZ--118" value="" style="line;strokeWidth=1;fillColor=none;align=left;verticalAlign=middle;spacingTop=-1;spacingLeft=3;spacingRight=3;rotatable=0;labelPosition=right;points=[];portConstraint=eastwest;" vertex="1" parent="5B9JckV7mlWKg8Jw2MZ--116">
          <mxGeometry y="52" width="270" height="8" as="geometry" />
        </mxCell>
        <mxCell id="5B9JckV7mlWKg8Jw2MZ--119" value="+ method(type): type" style="text;strokeColor=none;fillColor=none;align=left;verticalAlign=top;spacingLeft=4;spacingRight=4;overflow=hidden;rotatable=0;points=[[0,0.5],[1,0.5]];portConstraint=eastwest;" vertex="1" parent="5B9JckV7mlWKg8Jw2MZ--116">
          <mxGeometry y="60" width="270" height="26" as="geometry" />
        </mxCell>
        <mxCell id="5B9JckV7mlWKg8Jw2MZ--120" value="Extends" style="endArrow=block;endSize=16;endFill=0;html=1;rounded=0;entryX=0.4;entryY=1.04;entryDx=0;entryDy=0;exitX=0.378;exitY=-0.035;exitDx=0;exitDy=0;exitPerimeter=0;entryPerimeter=0;" edge="1" parent="1" source="5B9JckV7mlWKg8Jw2MZ--116" target="5B9JckV7mlWKg8Jw2MZ--69">
          <mxGeometry width="160" relative="1" as="geometry">
            <mxPoint x="1849.04" y="135.95799999999997" as="sourcePoint" />
            <mxPoint x="1780" y="70" as="targetPoint" />
          </mxGeometry>
        </mxCell>
      </root>
    </mxGraphModel>
  </diagram>
  <diagram id="JUiEKcfdjby-6tYVQ9d1" name="DataSource系谱图">
    <mxGraphModel dx="1214" dy="717" grid="1" gridSize="10" guides="1" tooltips="1" connect="1" arrows="1" fold="1" page="1" pageScale="1" pageWidth="3300" pageHeight="4681" math="0" shadow="0">
      <root>
        <mxCell id="0" />
        <mxCell id="1" parent="0" />
      </root>
    </mxGraphModel>
  </diagram>
  <diagram id="h3VQdSuoeIVPOyo6PrrO" name="multi DataSource">
    <mxGraphModel dx="1214" dy="688" grid="1" gridSize="10" guides="1" tooltips="1" connect="1" arrows="1" fold="1" page="1" pageScale="1" pageWidth="3300" pageHeight="4681" math="0" shadow="0">
      <root>
        <mxCell id="0" />
        <mxCell id="1" parent="0" />
        <mxCell id="_f_W4A9Qpc6MXgXcsGYV-1" value="Spark SQL" style="rounded=0;whiteSpace=wrap;html=1;" parent="1" vertex="1">
          <mxGeometry x="370" y="70" width="690" height="60" as="geometry" />
        </mxCell>
        <mxCell id="_f_W4A9Qpc6MXgXcsGYV-2" value="Hbase Plugin" style="rounded=0;whiteSpace=wrap;html=1;" parent="1" vertex="1">
          <mxGeometry x="370" y="210" width="130" height="60" as="geometry" />
        </mxCell>
        <mxCell id="_f_W4A9Qpc6MXgXcsGYV-3" value="Kafka Plugin" style="rounded=0;whiteSpace=wrap;html=1;" parent="1" vertex="1">
          <mxGeometry x="510" y="210" width="130" height="60" as="geometry" />
        </mxCell>
        <mxCell id="_f_W4A9Qpc6MXgXcsGYV-4" value="JDBC Plugin" style="rounded=0;whiteSpace=wrap;html=1;" parent="1" vertex="1">
          <mxGeometry x="650" y="210" width="130" height="60" as="geometry" />
        </mxCell>
        <mxCell id="_f_W4A9Qpc6MXgXcsGYV-5" value="TfRecord Plugin" style="rounded=0;whiteSpace=wrap;html=1;" parent="1" vertex="1">
          <mxGeometry x="790" y="210" width="130" height="60" as="geometry" />
        </mxCell>
        <mxCell id="_f_W4A9Qpc6MXgXcsGYV-6" value="xxxx Plugin" style="rounded=0;whiteSpace=wrap;html=1;" parent="1" vertex="1">
          <mxGeometry x="930" y="210" width="130" height="60" as="geometry" />
        </mxCell>
        <mxCell id="_f_W4A9Qpc6MXgXcsGYV-7" value="DataSource" style="rounded=0;whiteSpace=wrap;html=1;" parent="1" vertex="1">
          <mxGeometry x="370" y="140" width="690" height="60" as="geometry" />
        </mxCell>
        <mxCell id="_f_W4A9Qpc6MXgXcsGYV-8" value="Unify Catalog （Hive MetaStore（hive client 2/ 3))" style="rounded=0;whiteSpace=wrap;html=1;rotation=-90;" parent="1" vertex="1">
          <mxGeometry x="963.75" y="182.25" width="282.5" height="60" as="geometry" />
        </mxCell>
        <mxCell id="_f_W4A9Qpc6MXgXcsGYV-9" value="Hbase Cluster" style="rounded=0;whiteSpace=wrap;html=1;" parent="1" vertex="1">
          <mxGeometry x="370" y="278.5" width="130" height="60" as="geometry" />
        </mxCell>
        <mxCell id="_f_W4A9Qpc6MXgXcsGYV-10" value="Kafka Cluster" style="rounded=0;whiteSpace=wrap;html=1;" parent="1" vertex="1">
          <mxGeometry x="510" y="278.5" width="130" height="60" as="geometry" />
        </mxCell>
        <mxCell id="_f_W4A9Qpc6MXgXcsGYV-11" value="MySQL / Tidb" style="rounded=0;whiteSpace=wrap;html=1;" parent="1" vertex="1">
          <mxGeometry x="650" y="278.5" width="130" height="60" as="geometry" />
        </mxCell>
        <mxCell id="_f_W4A9Qpc6MXgXcsGYV-12" value="HDFS" style="rounded=0;whiteSpace=wrap;html=1;" parent="1" vertex="1">
          <mxGeometry x="790" y="278.5" width="130" height="60" as="geometry" />
        </mxCell>
        <mxCell id="_f_W4A9Qpc6MXgXcsGYV-13" value="xxxx&amp;nbsp;" style="rounded=0;whiteSpace=wrap;html=1;" parent="1" vertex="1">
          <mxGeometry x="930" y="278.5" width="130" height="60" as="geometry" />
        </mxCell>
      </root>
    </mxGraphModel>
  </diagram>
  <diagram id="jvEObpghnzyemqG9OYH5" name="V2CommandExec">
    <mxGraphModel dx="1214" dy="688" grid="1" gridSize="10" guides="1" tooltips="1" connect="1" arrows="1" fold="1" page="1" pageScale="1" pageWidth="3300" pageHeight="4681" math="0" shadow="0">
      <root>
        <mxCell id="0" />
        <mxCell id="1" parent="0" />
      </root>
    </mxGraphModel>
  </diagram>
</mxfile>
